<svg id="visual" viewBox="0 0 900 600" width="900" height="600" xmlns="http://www.w3.org/2000/svg" xmlns:xlink="http://www.w3.org/1999/xlink" version="1.1"><rect x="0" y="0" width="900" height="600" fill="#FFFFFF"></rect><path d="M0 146L9.3 145.5C18.7 145 37.3 144 56.2 144.2C75 144.3 94 145.7 112.8 149.2C131.7 152.7 150.3 158.3 169 156C187.7 153.7 206.3 143.3 225 141.8C243.7 140.3 262.3 147.7 281.2 152.5C300 157.3 319 159.7 337.8 157.5C356.7 155.3 375.3 148.7 394 146.2C412.7 143.7 431.3 145.3 450 148.8C468.7 152.3 487.3 157.7 506.2 154.8C525 152 544 141 562.8 139.8C581.7 138.7 600.3 147.3 619 151.7C637.7 156 656.3 156 675 154C693.7 152 712.3 148 731.2 145.3C750 142.7 769 141.3 787.8 142C806.7 142.7 825.3 145.3 844 147.8C862.7 150.3 881.3 152.7 890.7 153.8L900 155L900 0L890.7 0C881.3 0 862.7 0 844 0C825.3 0 806.7 0 787.8 0C769 0 750 0 731.2 0C712.3 0 693.7 0 675 0C656.3 0 637.7 0 619 0C600.3 0 581.7 0 562.8 0C544 0 525 0 506.2 0C487.3 0 468.7 0 450 0C431.3 0 412.7 0 394 0C375.3 0 356.7 0 337.8 0C319 0 300 0 281.2 0C262.3 0 243.7 0 225 0C206.3 0 187.7 0 169 0C150.3 0 131.7 0 112.8 0C94 0 75 0 56.2 0C37.3 0 18.7 0 9.3 0L0 0Z" fill="#fce9d4"></path><path d="M0 110L9.3 111C18.7 112 37.3 114 56.2 114.5C75 115 94 114 112.8 117.7C131.7 121.3 150.3 129.7 169 130.7C187.7 131.7 206.3 125.3 225 123.2C243.7 121 262.3 123 281.2 121.2C300 119.3 319 113.7 337.8 111.5C356.7 109.3 375.3 110.7 394 114.3C412.7 118 431.3 124 450 128C468.7 132 487.3 134 506.2 135.2C525 136.3 544 136.7 562.8 131.8C581.7 127 600.3 117 619 116.8C637.7 116.7 656.3 126.3 675 127.5C693.7 128.7 712.3 121.3 731.2 120.2C750 119 769 124 787.8 128.2C806.7 132.3 825.3 135.7 844 136.7C862.7 137.7 881.3 136.3 890.7 135.7L900 135L900 0L890.7 0C881.3 0 862.7 0 844 0C825.3 0 806.7 0 787.8 0C769 0 750 0 731.2 0C712.3 0 693.7 0 675 0C656.3 0 637.7 0 619 0C600.3 0 581.7 0 562.8 0C544 0 525 0 506.2 0C487.3 0 468.7 0 450 0C431.3 0 412.7 0 394 0C375.3 0 356.7 0 337.8 0C319 0 300 0 281.2 0C262.3 0 243.7 0 225 0C206.3 0 187.7 0 169 0C150.3 0 131.7 0 112.8 0C94 0 75 0 56.2 0C37.3 0 18.7 0 9.3 0L0 0Z" fill="#f1ceaf"></path><path d="M0 83L9.3 88.3C18.7 93.7 37.3 104.3 56.2 108.3C75 112.3 94 109.7 112.8 107C131.7 104.3 150.3 101.7 169 101.3C187.7 101 206.3 103 225 100.8C243.7 98.7 262.3 92.3 281.2 93.2C300 94 319 102 337.8 104.7C356.7 107.3 375.3 104.7 394 102C412.7 99.3 431.3 96.7 450 98.3C468.7 100 487.3 106 506.2 109.3C525 112.7 544 113.3 562.8 112.2C581.7 111 600.3 108 619 108C637.7 108 656.3 111 675 111.7C693.7 112.3 712.3 110.7 731.2 109.7C750 108.7 769 108.3 787.8 108.8C806.7 109.3 825.3 110.7 844 108.2C862.7 105.7 881.3 99.3 890.7 96.2L900 93L900 0L890.7 0C881.3 0 862.7 0 844 0C825.3 0 806.7 0 787.8 0C769 0 750 0 731.2 0C712.3 0 693.7 0 675 0C656.3 0 637.7 0 619 0C600.3 0 581.7 0 562.8 0C544 0 525 0 506.2 0C487.3 0 468.7 0 450 0C431.3 0 412.7 0 394 0C375.3 0 356.7 0 337.8 0C319 0 300 0 281.2 0C262.3 0 243.7 0 225 0C206.3 0 187.7 0 169 0C150.3 0 131.7 0 112.8 0C94 0 75 0 56.2 0C37.3 0 18.7 0 9.3 0L0 0Z" fill="#e7b38c"></path><path d="M0 68L9.3 71.5C18.7 75 37.3 82 56.2 81.5C75 81 94 73 112.8 72C131.7 71 150.3 77 169 79.5C187.7 82 206.3 81 225 77.3C243.7 73.7 262.3 67.3 281.2 68.8C300 70.3 319 79.7 337.8 80.8C356.7 82 375.3 75 394 73.3C412.7 71.7 431.3 75.3 450 77.7C468.7 80 487.3 81 506.2 79.8C525 78.7 544 75.3 562.8 71.5C581.7 67.7 600.3 63.3 619 66.2C637.7 69 656.3 79 675 82C693.7 85 712.3 81 731.2 81C750 81 769 85 787.8 83C806.7 81 825.3 73 844 68.5C862.7 64 881.3 63 890.7 62.5L900 62L900 0L890.7 0C881.3 0 862.7 0 844 0C825.3 0 806.7 0 787.8 0C769 0 750 0 731.2 0C712.3 0 693.7 0 675 0C656.3 0 637.7 0 619 0C600.3 0 581.7 0 562.8 0C544 0 525 0 506.2 0C487.3 0 468.7 0 450 0C431.3 0 412.7 0 394 0C375.3 0 356.7 0 337.8 0C319 0 300 0 281.2 0C262.3 0 243.7 0 225 0C206.3 0 187.7 0 169 0C150.3 0 131.7 0 112.8 0C94 0 75 0 56.2 0C37.3 0 18.7 0 9.3 0L0 0Z" fill="#dd976d"></path><path d="M0 42L9.3 43C18.7 44 37.3 46 56.2 45.3C75 44.7 94 41.3 112.8 43.7C131.7 46 150.3 54 169 53.3C187.7 52.7 206.3 43.3 225 41.3C243.7 39.3 262.3 44.7 281.2 48C300 51.3 319 52.7 337.8 55C356.7 57.3 375.3 60.7 394 59C412.7 57.3 431.3 50.7 450 49.8C468.7 49 487.3 54 506.2 54.3C525 54.7 544 50.3 562.8 48.3C581.7 46.3 600.3 46.7 619 48C637.7 49.3 656.3 51.7 675 51C693.7 50.3 712.3 46.7 731.2 47.3C750 48 769 53 787.8 54.3C806.7 55.7 825.3 53.3 844 52.5C862.7 51.7 881.3 52.3 890.7 52.7L900 53L900 0L890.7 0C881.3 0 862.7 0 844 0C825.3 0 806.7 0 787.8 0C769 0 750 0 731.2 0C712.3 0 693.7 0 675 0C656.3 0 637.7 0 619 0C600.3 0 581.7 0 562.8 0C544 0 525 0 506.2 0C487.3 0 468.7 0 450 0C431.3 0 412.7 0 394 0C375.3 0 356.7 0 337.8 0C319 0 300 0 281.2 0C262.3 0 243.7 0 225 0C206.3 0 187.7 0 169 0C150.3 0 131.7 0 112.8 0C94 0 75 0 56.2 0C37.3 0 18.7 0 9.3 0L0 0Z" fill="#d37951"></path><path d="M0 28L9.3 29.7C18.7 31.3 37.3 34.7 56.2 32.2C75 29.7 94 21.3 112.8 16.8C131.7 12.3 150.3 11.7 169 16.2C187.7 20.7 206.3 30.3 225 30.8C243.7 31.3 262.3 22.7 281.2 20.3C300 18 319 22 337.8 25.3C356.7 28.7 375.3 31.3 394 29C412.7 26.7 431.3 19.3 450 17.8C468.7 16.3 487.3 20.7 506.2 21.2C525 21.7 544 18.3 562.8 19.7C581.7 21 600.3 27 619 29.5C637.7 32 656.3 31 675 29.7C693.7 28.3 712.3 26.7 731.2 28.2C750 29.7 769 34.3 787.8 33.3C806.7 32.3 825.3 25.7 844 22.8C862.7 20 881.3 21 890.7 21.5L900 22L900 0L890.7 0C881.3 0 862.7 0 844 0C825.3 0 806.7 0 787.8 0C769 0 750 0 731.2 0C712.3 0 693.7 0 675 0C656.3 0 637.7 0 619 0C600.3 0 581.7 0 562.8 0C544 0 525 0 506.2 0C487.3 0 468.7 0 450 0C431.3 0 412.7 0 394 0C375.3 0 356.7 0 337.8 0C319 0 300 0 281.2 0C262.3 0 243.7 0 225 0C206.3 0 187.7 0 169 0C150.3 0 131.7 0 112.8 0C94 0 75 0 56.2 0C37.3 0 18.7 0 9.3 0L0 0Z" fill="#c85a3a"></path></svg>